<svg xmlns="http://www.w3.org/2000/svg" width="54" height="43" viewBox="0 0 54 43" fill="none"><path d="M11.7921 10.7209H3.55796L2.83757 12.6122H12.5883L11.7921 10.7209ZM8.88161 0H6.66918L0.000674965 17.4139H1.9923L6.2209 6.24475C6.37033 5.82992 6.51976 5.4151 6.66918 5.00027C6.81638 4.58544 6.96581 4.16615 7.11524 3.74463C7.26467 3.32088 7.40962 2.89711 7.55236 2.47559C7.60812 2.30609 7.66387 2.13659 7.71963 1.96932C7.76201 2.09644 7.80439 2.22803 7.84899 2.36408C7.9895 2.79452 8.13893 3.23834 8.29728 3.69331C8.45563 4.15052 8.60506 4.58989 8.74556 5.01364C8.88607 5.43516 9.01542 5.80538 9.1314 6.11984L13.3845 17.4139H15.4988L8.88161 0Z" fill="#1E1E1E"></path><path d="M35.7115 0V6.39419C35.7115 6.95622 35.7137 7.58738 35.7227 8.28322C35.7316 8.98129 35.7427 9.69274 35.7606 10.422C35.7762 11.1536 35.7985 11.8539 35.823 12.5252C35.8476 13.1965 35.8721 13.7987 35.8966 14.3295C35.8989 14.3785 35.9011 14.4254 35.9033 14.4722L24.9638 0H23.1975V17.4139H25.1378V9.50317C25.1378 9.35374 25.1333 9.10396 25.1266 8.75604C25.1177 8.40811 25.1043 7.98435 25.0887 7.487C25.0709 6.98965 25.0508 6.44324 25.0263 5.84552C25.0018 5.24781 24.9683 4.6278 24.9259 3.98102C24.9059 3.66433 24.8858 3.34762 24.8635 3.02646L35.8342 17.4139H37.6518V0H35.7115Z" fill="#1E1E1E"></path><path d="M35.3991 24.5009V35.0233C35.3991 36.0024 35.1828 36.8811 34.7523 37.6595C34.3197 38.44 33.7286 39.0534 32.9726 39.5017C32.2188 39.9499 31.3601 40.173 30.3989 40.173C29.4376 40.173 28.6615 39.9499 27.9233 39.5017C27.185 39.0534 26.6007 38.44 26.1703 37.6595C25.7376 36.8811 25.5235 36.0024 25.5235 35.0233V24.5009H23.5832V35.2485C23.5832 36.5577 23.8776 37.7308 24.4663 38.7679C25.0551 39.805 25.8625 40.6168 26.8906 41.2056C27.9188 41.7944 29.0875 42.0888 30.3989 42.0888C31.7102 42.0888 32.9079 41.7944 33.9427 41.2056C34.9798 40.6168 35.7939 39.805 36.3827 38.7679C36.9692 37.7308 37.2659 36.5577 37.2659 35.2485V24.5009H35.3991Z" fill="#1E1E1E"></path><path d="M11.816 24.5007V35.0232C11.816 36.0022 11.5996 36.881 11.1692 37.6593C10.7365 38.4399 10.1455 39.0532 9.38942 39.5015C8.63559 39.9498 7.77695 40.1728 6.8157 40.1728C5.85445 40.1728 5.07833 39.9498 4.34011 39.5015C3.60189 39.0532 3.01755 38.4399 2.58711 37.6593C2.18789 36.9412 1.97378 36.1383 1.94479 35.2484H0C0 36.5576 0.2944 37.7307 0.883191 38.7678C1.47198 39.8048 2.27934 40.6167 3.30749 41.2055C4.33565 41.7942 5.5043 42.0886 6.8157 42.0886C8.1271 42.0886 9.32475 41.7942 10.3596 41.2055C11.3967 40.6167 12.2085 39.8048 12.7973 38.7678C13.3861 37.7307 13.6805 36.5576 13.6805 35.2484V24.5007H11.816Z" fill="#1E1E1E"></path><path d="M13.6805 24.5007L3.15842 24.5007V26.4901H13.6808L13.6805 24.5007Z" fill="#1E1E1E"></path><path d="M53.8673 42.0891H44.6741V41.0899L50.4126 37.5572L50.3992 38.03L44.6741 34.4571V33.5248H53.8673V34.5485H49.6655C48.8782 34.5485 48.1689 34.5351 47.5378 34.5084C46.9066 34.4816 46.2822 34.4348 45.6599 34.3634L46.0279 34.1805L51.2021 37.4769V38.1861L46.0926 41.391L45.6599 41.246C46.2465 41.1769 46.8486 41.1278 47.4664 41.1011C48.0842 41.0743 48.818 41.0609 49.6655 41.0609H53.8673V42.0891Z" fill="#1E1E1E"></path><path d="M53.8673 29.3539L44.6741 25.8345V24.6659L53.8673 21.1733V22.2906L47.9035 24.5365C47.7363 24.599 47.5422 24.6659 47.3192 24.7395C47.0962 24.8131 46.8642 24.8934 46.6234 24.9759C46.3825 25.0584 46.1483 25.1387 45.9208 25.2123C45.6933 25.2859 45.4926 25.355 45.3164 25.4152V25.1521C45.535 25.2212 45.7558 25.2948 45.9788 25.3684C46.2019 25.442 46.4249 25.5201 46.6479 25.5981C46.8709 25.6762 47.0917 25.7565 47.3103 25.8345C47.5289 25.9126 47.7474 25.9929 47.966 26.0709L53.8628 28.3034V29.3539H53.8673ZM51.3337 27.8574L50.3345 27.476V23.1292L51.3337 22.7099V27.8574Z" fill="#1E1E1E"></path><path d="M53.9989 13.0348C53.9989 13.6905 53.8829 14.2949 53.6509 14.848C53.419 15.3989 53.0911 15.8762 52.6651 16.2799C52.2414 16.6835 51.7396 16.9958 51.1619 17.2188C50.5843 17.4418 49.9531 17.5533 49.2707 17.5533C48.5882 17.5533 47.9771 17.4418 47.4129 17.2188C46.8486 16.9958 46.3535 16.6791 45.9297 16.2665C45.506 15.8561 45.1781 15.3788 44.9506 14.8346C44.7232 14.2927 44.6094 13.6972 44.6094 13.0482C44.6094 12.62 44.6763 12.194 44.8124 11.7747C44.9484 11.3554 45.1335 10.9673 45.3699 10.6127C45.6063 10.2581 45.8784 9.9682 46.184 9.73848L46.92 10.4477C46.6568 10.6663 46.4293 10.9183 46.2375 11.2038C46.0457 11.4892 45.8963 11.7881 45.7915 12.1026C45.6866 12.417 45.6331 12.7337 45.6331 13.0482C45.6331 13.5389 45.7223 13.9961 45.903 14.4198C46.0836 14.8436 46.3334 15.2093 46.659 15.5171C46.9824 15.8226 47.3683 16.0613 47.8143 16.233C48.2604 16.4048 48.7466 16.4895 49.2729 16.4895C49.7993 16.4895 50.3144 16.4048 50.7694 16.233C51.2244 16.0613 51.6169 15.8182 51.9448 15.497C52.2726 15.1781 52.5269 14.8012 52.7075 14.3685C52.8859 13.9358 52.9774 13.4519 52.9774 12.9166C52.9774 12.6021 52.9305 12.2854 52.8391 11.971C52.7477 11.6565 52.6183 11.3666 52.451 11.1034C52.2838 10.8402 52.0964 10.6172 51.8868 10.4343L52.741 9.90796C52.9863 10.1087 53.2026 10.3785 53.3922 10.7153C53.5796 11.0521 53.729 11.4223 53.8383 11.826C53.9475 12.2297 54.0033 12.6311 54.0033 13.0348H53.9989Z" fill="#1E1E1E"></path><path d="M53.8673 5.56897H44.6741V0H45.6733V4.54306H52.8704V0.0245297H53.8695V5.56674L53.8673 5.56897ZM49.6387 5.09616H48.6395V0.735972H49.6387V5.09616Z" fill="#1E1E1E"></path></svg>