<svg width="402" height="306" viewBox="0 0 402 306" fill="none" xmlns="http://www.w3.org/2000/svg">
<path d="M87.7325 77.8106H26.4676L21.1077 91.5372H93.6566L87.7325 77.8106ZM66.0774 0H49.6162L0.000183105 126.388H14.8186L28.3427 91.5372L33.6693 77.8106L46.2808 45.3235C47.3926 42.3127 48.5044 39.302 49.6162 36.2912C50.7114 33.2805 51.8232 30.2373 52.935 27.178C54.0468 24.1024 55.1254 21.0268 56.1874 17.9675C56.6022 16.7373 57.0171 15.507 57.4319 14.293C57.7472 15.2157 58.0625 16.1707 58.3944 17.1581C59.4398 20.2822 60.5516 23.5034 61.7298 26.8055C62.908 30.1238 64.0198 33.3127 65.0652 36.3883C66.1106 39.4476 67.073 42.1346 67.9359 44.4169L80.8295 77.8106L86.123 91.5372L99.5807 126.388H115.312L66.0774 0Z" fill="#7A8569"/>
<path d="M265.703 0V46.4081C265.703 50.4872 265.72 55.0681 265.786 60.1184C265.852 65.1849 265.935 70.3485 266.068 75.6416C266.184 80.951 266.35 86.0338 266.533 90.906C266.715 95.7783 266.898 100.149 267.08 104.001C267.097 104.357 267.113 104.697 267.13 105.037L185.736 0H172.594V126.388H187.031V68.9726C187.031 67.8881 186.998 66.0752 186.948 63.55C186.881 61.0249 186.782 57.9492 186.666 54.3395C186.533 50.7299 186.384 46.7641 186.201 42.426C186.019 38.0879 185.77 33.5879 185.454 28.8937C185.305 26.5951 185.156 24.2965 184.99 21.9656L266.616 126.388H280.14V0H265.703Z" fill="#7A8569"/>
<path d="M263.38 177.83V254.2C263.38 261.306 261.77 267.683 258.568 273.333C255.348 278.998 250.951 283.45 245.326 286.703C239.717 289.957 233.328 291.575 226.176 291.575C219.024 291.575 213.249 289.957 207.757 286.703C202.264 283.45 197.917 278.998 194.714 273.333C191.495 267.683 189.902 261.306 189.902 254.2V177.83H175.465V255.834C175.465 265.336 177.655 273.851 182.036 281.378C186.417 288.904 192.424 294.797 200.074 299.07C207.724 303.343 216.419 305.48 226.176 305.48C235.933 305.48 244.844 303.343 252.544 299.07C260.26 294.797 266.317 288.904 270.698 281.378C275.062 273.851 277.269 265.336 277.269 255.834V177.83H263.38Z" fill="#7A8569"/>
<path d="M87.9149 177.83V254.2C87.9149 261.306 86.3054 267.683 83.1027 273.333C79.8835 278.998 75.486 283.45 69.8606 286.703C64.2519 289.957 57.8632 291.575 50.7112 291.575C43.5592 291.575 37.7845 289.957 32.2919 286.703C26.7993 283.45 22.4516 278.998 19.249 273.333C16.2787 268.12 14.6856 262.293 14.4699 255.834H0C0 265.336 2.19044 273.851 6.57126 281.378C10.9521 288.904 16.9591 294.797 24.6089 299.07C32.2587 303.343 40.954 305.48 50.7112 305.48C60.4685 305.48 69.3795 303.343 77.0791 299.07C84.7953 294.797 90.8355 288.904 95.2163 281.378C99.5971 273.851 101.788 265.336 101.788 255.834V177.83H87.9149Z" fill="#7A8569"/>
<path d="M101.787 177.83H23.4969V192.268H101.787V177.83Z" fill="#7A8569"/>
<path d="M400.795 305.48H332.394V298.228L375.091 272.588L374.991 276.02L332.394 250.088V243.322H400.795V250.752H369.532C363.674 250.752 358.397 250.655 353.701 250.46C349.005 250.266 344.359 249.926 339.729 249.408L342.467 248.081L380.965 272.005V277.153L342.948 300.413L339.729 299.361C344.093 298.859 348.574 298.503 353.17 298.309C357.767 298.115 363.226 298.018 369.532 298.018H400.795V305.447V305.48Z" fill="#7A8569"/>
<path d="M400.795 213.053L332.394 187.51V179.028L400.795 153.679V161.789L356.422 178.089C355.178 178.542 353.734 179.028 352.075 179.562C350.415 180.096 348.69 180.679 346.898 181.278C345.105 181.877 343.363 182.459 341.67 182.993C339.978 183.528 338.484 184.029 337.173 184.466V182.557C338.8 183.058 340.442 183.592 342.102 184.127C343.761 184.661 345.421 185.227 347.08 185.794C348.739 186.36 350.382 186.943 352.008 187.51C353.635 188.076 355.261 188.659 356.887 189.226L400.761 205.429V213.053H400.795ZM381.944 202.191L374.51 199.423V167.875L381.944 164.832V202.191Z" fill="#7A8569"/>
<path d="M401.774 94.6124C401.774 99.3714 400.911 103.758 399.185 107.772C397.459 111.771 395.02 115.235 391.851 118.165C388.698 121.094 384.964 123.36 380.666 124.979C376.368 126.598 371.672 127.407 366.595 127.407C361.517 127.407 356.97 126.598 352.772 124.979C348.574 123.36 344.89 121.062 341.737 118.067C338.584 115.089 336.145 111.625 334.452 107.675C332.759 103.742 331.913 99.42 331.913 94.7096C331.913 91.6017 332.411 88.5099 333.423 85.4667C334.435 82.4236 335.813 79.6071 337.572 77.0334C339.331 74.4597 341.355 72.3555 343.629 70.6882L349.104 75.8356C347.146 77.4219 345.454 79.251 344.027 81.323C342.6 83.3949 341.488 85.564 340.708 87.8464C339.928 90.1287 339.53 92.4273 339.53 94.7096C339.53 98.2708 340.194 101.589 341.538 104.665C342.882 107.74 344.74 110.395 347.163 112.629C349.569 114.846 352.44 116.578 355.759 117.825C359.077 119.071 362.695 119.686 366.611 119.686C370.527 119.686 374.361 119.071 377.746 117.825C381.131 116.578 384.051 114.814 386.491 112.483C388.93 110.168 390.822 107.432 392.166 104.292C393.493 101.152 394.174 97.6395 394.174 93.7547C394.174 91.4723 393.825 89.1736 393.145 86.8912C392.465 84.6088 391.502 82.5047 390.258 80.5946C389.013 78.6846 387.619 77.0659 386.059 75.7386L392.415 71.9183C394.24 73.3751 395.85 75.3337 397.26 77.7779C398.654 80.2222 399.766 82.9094 400.579 85.8392C401.392 88.769 401.807 91.6826 401.807 94.6124H401.774Z" fill="#7A8569"/>
<path d="M400.795 40.4188H332.394V0H339.828V32.9728H393.377V0.178033H400.811V40.4026L400.795 40.4188ZM369.333 36.9872H361.899V5.34158H369.333V36.9872Z" fill="#7A8569"/>
</svg>
