<svg width="131" height="99" viewBox="0 0 131 99" fill="none" xmlns="http://www.w3.org/2000/svg">
<path d="M28.427 25.2123H8.57597L6.83925 29.6599H30.3466L28.427 25.2123ZM21.4103 6.10352e-05H16.0766L0 40.9522H4.80146L9.18355 29.6599L10.9095 25.2123L14.9959 14.6858C15.3561 13.7102 15.7163 12.7347 16.0766 11.7592C16.4315 10.7836 16.7917 9.79756 17.1519 8.80627C17.5122 7.80974 17.8617 6.81317 18.2058 5.82189C18.3402 5.42328 18.4746 5.02465 18.609 4.63129C18.7112 4.93024 18.8134 5.2397 18.9209 5.55964C19.2596 6.57191 19.6199 7.61562 20.0016 8.68558C20.3834 9.76079 20.7436 10.7941 21.0824 11.7906C21.4211 12.7819 21.733 13.6525 22.0125 14.392L26.1903 25.2123L27.9055 29.6599L32.2661 40.9522H37.3633L21.4103 6.10352e-05Z" fill="#F5F5DD"/>
<path d="M86.0931 3.05176e-05V15.0372C86.0931 16.3589 86.0985 17.8432 86.12 19.4796C86.1415 21.1213 86.1684 22.7944 86.2114 24.5094C86.249 26.2298 86.3028 27.8767 86.3619 29.4554C86.4211 31.0341 86.4802 32.4502 86.5394 33.6985C86.5447 33.8139 86.5501 33.9241 86.5555 34.0342L60.1824 3.05176e-05H55.924V40.9522H60.6018V22.3485C60.6018 21.9971 60.591 21.4097 60.5749 20.5915C60.5533 19.7733 60.5211 18.7767 60.4835 17.6071C60.4404 16.4375 60.3921 15.1525 60.3329 13.7469C60.2738 12.3413 60.1931 10.8832 60.091 9.36217C60.0426 8.61739 59.9942 7.8726 59.9404 7.11733L86.3888 40.9522H90.7709V3.05176e-05H86.0931Z" fill="#F5F5DD"/>
<path d="M85.3403 57.6205V82.3659C85.3403 84.6684 84.8188 86.7349 83.7811 88.5654C82.738 90.4011 81.3132 91.8434 79.4904 92.8977C77.6731 93.9519 75.603 94.4764 73.2856 94.4764C70.9682 94.4764 69.0971 93.9519 67.3174 92.8977C65.5377 91.8434 64.1289 90.4011 63.0912 88.5654C62.0481 86.7349 61.5319 84.6684 61.5319 82.3659V57.6205H56.8541V82.8956C56.8541 85.9744 57.5639 88.7332 58.9833 91.1721C60.4028 93.6109 62.3492 95.5201 64.8279 96.9048C67.3066 98.2894 70.124 98.9817 73.2856 98.9817C76.4471 98.9817 79.3345 98.2894 81.8293 96.9048C84.3295 95.5201 86.292 93.6109 87.7115 91.1721C89.1256 88.7332 89.8407 85.9744 89.8407 82.8956V57.6205H85.3403Z" fill="#F5F5DD"/>
<path d="M28.4862 57.6204V82.3659C28.4862 84.6684 27.9647 86.7349 26.9269 88.5653C25.8839 90.4011 24.459 91.8434 22.6363 92.8976C20.8189 93.9519 18.7488 94.4763 16.4315 94.4763C14.1141 94.4763 12.243 93.9519 10.4632 92.8976C8.68352 91.8434 7.27478 90.4011 6.23706 88.5653C5.27461 86.8765 4.75844 84.9883 4.68854 82.8956H0C0 85.9743 0.709747 88.7332 2.12922 91.172C3.54869 93.6109 5.49508 95.5201 7.97378 96.9047C10.4525 98.2894 13.2699 98.9817 16.4315 98.9817C19.593 98.9817 22.4803 98.2894 24.9752 96.9047C27.4754 95.5201 29.4325 93.6109 30.852 91.172C32.2715 88.7332 32.9812 85.9743 32.9812 82.8956V57.6204H28.4862Z" fill="#F5F5DD"/>
<path d="M32.9812 57.6205H7.61346V62.2989H32.9812V57.6205Z" fill="#F5F5DD"/>
<path d="M129.866 98.9817H107.702V96.632L121.537 88.3241L121.505 89.436L107.702 81.0336V78.8412H129.866V81.2487H119.736C117.838 81.2487 116.128 81.2172 114.606 81.1543C113.085 81.0913 111.579 80.9812 110.079 80.8133L110.966 80.3833L123.44 88.1353V89.8031L111.122 97.34L110.079 96.9991C111.493 96.8365 112.945 96.7212 114.434 96.6582C115.924 96.5953 117.693 96.5638 119.736 96.5638H129.866V98.9712V98.9817Z" fill="#F5F5DD"/>
<path d="M129.866 69.0334L107.702 60.7569V58.0086L129.866 49.795V52.4227L115.488 57.7044C115.085 57.8513 114.617 58.0086 114.079 58.1816C113.542 58.3547 112.982 58.5436 112.402 58.7376C111.821 58.9317 111.256 59.1205 110.708 59.2936C110.16 59.4666 109.676 59.6292 109.251 59.7709V59.152C109.778 59.3146 110.31 59.4877 110.848 59.6607C111.386 59.8338 111.923 60.0174 112.461 60.201C112.999 60.3845 113.531 60.5733 114.058 60.7569C114.585 60.9405 115.112 61.1293 115.639 61.3129L129.855 66.563V69.0334H129.866ZM123.758 65.5141L121.349 64.6171V54.3948L123.758 53.4088V65.5141Z" fill="#F5F5DD"/>
<path d="M130.183 30.6564C130.183 32.1984 129.903 33.6197 129.344 34.9205C128.785 36.216 127.994 37.3384 126.967 38.2877C125.946 39.237 124.736 39.9713 123.344 40.4958C121.951 41.0203 120.429 41.2825 118.784 41.2825C117.139 41.2825 115.665 41.0203 114.305 40.4958C112.945 39.9713 111.751 39.2265 110.73 38.2562C109.708 37.2912 108.918 36.1688 108.369 34.889C107.821 33.6145 107.547 32.2141 107.547 30.6879C107.547 29.6808 107.708 28.679 108.036 27.693C108.364 26.7069 108.81 25.7943 109.38 24.9604C109.95 24.1265 110.606 23.4447 111.343 22.9044L113.117 24.5723C112.482 25.0863 111.934 25.679 111.472 26.3503C111.009 27.0217 110.649 27.7245 110.396 28.464C110.144 29.2036 110.014 29.9483 110.014 30.6879C110.014 31.8417 110.23 32.917 110.665 33.9135C111.101 34.91 111.703 35.7701 112.488 36.4939C113.267 37.2125 114.198 37.7737 115.273 38.1776C116.348 38.5815 117.52 38.7807 118.789 38.7807C120.058 38.7807 121.3 38.5815 122.397 38.1776C123.494 37.7737 124.44 37.202 125.231 36.4468C126.021 35.6967 126.634 34.8103 127.07 33.7928C127.5 32.7753 127.72 31.6372 127.72 30.3784C127.72 29.6389 127.607 28.8941 127.387 28.1545C127.166 27.415 126.855 26.7332 126.451 26.1143C126.048 25.4954 125.596 24.9709 125.091 24.5409L127.15 23.303C127.742 23.775 128.263 24.4097 128.72 25.2017C129.172 25.9936 129.532 26.8643 129.796 27.8137C130.059 28.763 130.194 29.707 130.194 30.6564H130.183Z" fill="#F5F5DD"/>
<path d="M129.866 13.0965H107.702V0H110.111V10.6839H127.462V0.0576862H129.871V13.0913L129.866 13.0965ZM119.671 11.9846H117.262V1.73078H119.671V11.9846Z" fill="#F5F5DD"/>
</svg>
