<svg width="144" height="15" viewBox="0 0 144 15" fill="none" xmlns="http://www.w3.org/2000/svg">
<path d="M78.4143 14.4266V0.100708H79.9701L85.4744 9.04337L84.7369 9.02321L90.3035 0.100708H91.7567V14.4266H90.1604V7.87832C90.1604 6.65086 90.1806 5.54448 90.221 4.56288C90.2614 3.58128 90.3366 2.60519 90.4467 1.63643L90.7329 2.20886L85.5955 10.2727H84.491L79.4968 2.31161L79.7224 1.63643C79.8307 2.55015 79.9059 3.48768 79.9481 4.45094C79.9903 5.41419 80.0087 6.55545 80.0087 7.87832V14.4266H78.4124H78.4143Z" fill="#222222"/>
<path d="M98.2574 14.4266L103.742 0.100708H105.563L111.007 14.4266H109.268L105.769 5.13535C105.674 4.87665 105.567 4.57204 105.452 4.22526C105.336 3.87666 105.213 3.51523 105.083 3.14093C104.952 2.76664 104.83 2.40153 104.714 2.04558C104.598 1.69147 104.492 1.3777 104.397 1.10432H104.806C104.696 1.44559 104.584 1.79055 104.468 2.13732C104.352 2.48593 104.233 2.83269 104.11 3.18129C103.987 3.5299 103.864 3.87302 103.742 4.21429C103.619 4.55556 103.496 4.89679 103.373 5.23806L99.894 14.4266H98.2574ZM100.591 10.4763L101.184 8.92045H107.958L108.613 10.4763H100.591Z" fill="#222222"/>
<path d="M123.685 14.6323C122.661 14.6323 121.72 14.4506 120.861 14.0892C120.003 13.7277 119.258 13.2159 118.63 12.5535C118.003 11.8912 117.515 11.1114 117.168 10.2105C116.821 9.30964 116.647 8.32803 116.647 7.26387C116.647 6.1997 116.821 5.24745 117.168 4.3686C117.517 3.48791 118.01 2.71733 118.652 2.05681C119.293 1.39446 120.038 0.88622 120.883 0.53211C121.729 0.177999 122.658 0 123.667 0C124.335 0 124.997 0.106458 125.652 0.317456C126.307 0.528455 126.911 0.818346 127.463 1.18713C128.015 1.55592 128.468 1.97791 128.824 2.45678L127.72 3.60351C127.378 3.19436 126.986 2.84024 126.544 2.53934C126.1 2.24027 125.634 2.00725 125.142 1.84395C124.65 1.68066 124.16 1.59812 123.669 1.59812C122.903 1.59812 122.192 1.73753 121.529 2.01825C120.867 2.29897 120.298 2.6898 119.821 3.19436C119.344 3.69892 118.972 4.2989 118.706 4.99612C118.439 5.69149 118.307 6.44923 118.307 7.26754C118.307 8.08585 118.439 8.8913 118.706 9.60136C118.972 10.3114 119.353 10.9206 119.852 11.4325C120.349 11.9444 120.937 12.3407 121.612 12.6195C122.287 12.8984 123.041 13.0397 123.874 13.0397C124.366 13.0397 124.856 12.9682 125.347 12.8251C125.839 12.6819 126.289 12.4801 126.698 12.2214C127.107 11.9627 127.456 11.6691 127.742 11.3407L128.56 12.6709C128.246 13.0526 127.826 13.3902 127.301 13.6837C126.777 13.9773 126.199 14.2085 125.573 14.3791C124.946 14.5497 124.318 14.6341 123.691 14.6341L123.685 14.6323Z" fill="#222222"/>
<path d="M135.323 14.4266V0.100708H144V1.65659H136.92V12.8707H143.96V14.4266H135.323ZM136.061 7.83612V6.28024H142.855V7.83612H136.061Z" fill="#222222"/>
<path d="M0 14.4486L5.58687 0.122803H8.08399L13.6305 14.4486H10.8673L7.79777 6.30413C7.72988 6.14083 7.63631 5.88213 7.52072 5.52619C7.40513 5.17208 7.27853 4.78677 7.14275 4.37027C7.00698 3.95378 6.88405 3.56484 6.77396 3.20339C6.66388 2.84194 6.58314 2.57956 6.5281 2.41626L7.04001 2.39606C6.95744 2.66944 6.86203 2.97585 6.75378 3.31712C6.6437 3.65839 6.5281 4.01251 6.40517 4.38129C6.28224 4.75008 6.16298 5.1042 6.04739 5.44547C5.9318 5.78674 5.82539 6.09315 5.72998 6.36653L2.66041 14.4505H0V14.4486ZM2.53748 11.1736L3.45853 8.86178H9.98665L10.9682 11.1736H2.53748Z" fill="#222222"/>
<path d="M18.2925 14.4485V0.122681H20.6869L28.9966 11.3166L28.5471 11.3992C28.492 11.0175 28.4443 10.6249 28.4039 10.2231C28.3636 9.82128 28.3251 9.4011 28.292 8.96442C28.2572 8.52775 28.2315 8.07089 28.2095 7.59385C28.1893 7.11681 28.1709 6.61593 28.1581 6.08935C28.1452 5.56461 28.1379 5.00866 28.1379 4.42153V0.124517H30.7781V14.4504H28.3434L19.9934 3.41975L20.5255 3.27664C20.5933 4.04174 20.6521 4.69123 20.6998 5.23065C20.7475 5.77007 20.7842 6.23428 20.8117 6.62142C20.8392 7.01039 20.8631 7.33515 20.8832 7.59385C20.9034 7.85256 20.9181 8.08926 20.9236 8.30026C20.9309 8.51126 20.9346 8.71304 20.9346 8.90386V14.4504H18.2944L18.2925 14.4485Z" fill="#222222"/>
<path d="M59.672 14.5696C58.54 14.5696 57.529 14.3274 56.6428 13.843C55.7566 13.3587 55.0576 12.6908 54.5457 11.8376C54.0338 10.9844 53.7787 10.0194 53.7787 8.94237V0.100586H56.4593V8.75706C56.4593 9.39923 56.6061 9.96797 56.8997 10.4652C57.1933 10.9624 57.5859 11.3624 58.0758 11.6615C58.5675 11.9624 59.0996 12.111 59.672 12.111C60.2995 12.111 60.8665 11.9605 61.371 11.6615C61.8756 11.3624 62.2737 10.9624 62.5673 10.4652C62.8609 9.96797 63.0076 9.39739 63.0076 8.75706V0.100586H65.5855V8.94237C65.5855 10.0212 65.3305 10.9863 64.8185 11.8376C64.3066 12.6908 63.6076 13.3587 62.7214 13.843C61.8352 14.3274 60.8188 14.5696 59.672 14.5696Z" fill="#222222"/>
<path d="M38.8347 0.100586V2.67844H45.3774V8.75706C45.3774 9.39923 45.2307 9.96797 44.9371 10.467C44.6435 10.9643 44.2454 11.3642 43.7408 11.6633C43.2344 11.9642 42.6693 12.1146 42.0418 12.1146C41.4694 12.1146 40.9355 11.9642 40.4456 11.6633C39.9539 11.3642 39.5612 10.9643 39.2677 10.467C39.0035 10.0157 38.8585 9.50931 38.8347 8.94237H36.1467C36.1467 10.0194 36.4036 10.9844 36.9155 11.8376C37.4274 12.6908 38.1264 13.3587 39.0126 13.843C39.8988 14.3274 40.9079 14.5696 42.0418 14.5696C43.1757 14.5696 44.2032 14.3274 45.0912 13.843C45.9774 13.3587 46.6765 12.6908 47.1884 11.8376C47.7003 10.9844 47.9553 10.0194 47.9553 8.94237V0.100586H38.8347Z" fill="#222222"/>
</svg>
