<svg width="942" height="95" viewBox="0 0 942 95" fill="none" xmlns="http://www.w3.org/2000/svg">
<path d="M512.96 93.6543V0.655191H523.138L559.146 58.7081L554.321 58.5772L590.736 0.655191H600.242V93.6543H589.8V51.1449C589.8 43.1767 589.932 35.9944 590.196 29.6222C590.46 23.2499 590.952 16.9135 591.672 10.6246L593.545 14.3406L559.938 66.6885H552.712L520.042 15.0077L521.518 10.6246C522.226 16.5562 522.718 22.6424 522.994 28.8955C523.27 35.1486 523.391 42.5573 523.391 51.1449V93.6543H512.948H512.96Z" fill="#262626"/>
<path d="M642.767 93.6543L678.642 0.655191H690.561L726.172 93.6543H714.794L691.905 33.3385C691.281 31.659 690.585 29.6816 689.829 27.4305C689.072 25.1675 688.268 22.8211 687.416 20.3914C686.564 17.9616 685.76 15.5914 685.004 13.2807C684.248 10.9819 683.551 8.94502 682.927 7.17033H685.604C684.884 9.38572 684.151 11.6251 683.395 13.8762C682.639 16.1393 681.859 18.3903 681.055 20.6534C680.251 22.9164 679.447 25.1439 678.642 27.3592C677.838 29.5746 677.034 31.7898 676.23 34.0052L653.473 93.6543H642.767ZM658.034 68.0104L661.911 57.9102H706.224L710.509 68.0104H658.034Z" fill="#262626"/>
<path d="M809.109 94.9881C802.411 94.9881 796.254 93.809 790.637 91.4626C785.02 89.1161 780.147 85.7932 776.042 81.4934C771.937 77.1936 768.745 72.1316 766.476 66.2834C764.208 60.4352 763.067 54.0629 763.067 47.1547C763.067 40.2465 764.208 34.0648 766.476 28.3595C768.757 22.6424 771.985 17.64 776.186 13.3522C780.375 9.0524 785.248 5.75306 790.781 3.45429C796.314 1.15552 802.387 0 808.989 0C813.358 0 817.691 0.69109 821.976 2.06082C826.26 3.43056 830.209 5.31244 833.822 7.7065C837.435 10.1006 840.399 12.8399 842.728 15.9486L835.502 23.3928C833.27 20.7367 830.701 18.4379 827.809 16.4846C824.904 14.5431 821.856 13.0304 818.639 11.9703C815.422 10.9103 812.218 10.3745 809.001 10.3745C803.996 10.3745 799.339 11.2795 795.006 13.1018C790.673 14.9241 786.952 17.4613 783.832 20.7368C780.711 24.0122 778.275 27.9071 776.534 32.4332C774.794 36.9474 773.93 41.8663 773.93 47.1785C773.93 52.4907 774.794 57.7195 776.534 62.3289C778.275 66.9384 780.771 70.8927 784.036 74.2158C787.289 77.5389 791.129 80.1116 795.546 81.922C799.963 83.7325 804.896 84.6496 810.345 84.6496C813.562 84.6496 816.766 84.1852 819.983 83.2562C823.2 82.3271 826.14 81.0169 828.817 79.3375C831.493 77.6581 833.774 75.7523 835.646 73.6203L840.999 82.2556C838.947 84.733 836.198 86.9246 832.766 88.8303C829.333 90.736 825.552 92.2368 821.459 93.3445C817.355 94.4522 813.25 95 809.145 95L809.109 94.9881Z" fill="#262626"/>
<path d="M885.24 93.6543V0.655191H942V10.7555H895.682V83.554H941.736V93.6543H885.24ZM890.065 50.871V40.7707H934.51V50.871H890.065Z" fill="#262626"/>
<path d="M0 93.7979L36.5475 0.799095H52.8828L89.1661 93.7979H71.0905L51.0104 40.9263C50.5663 39.8662 49.9542 38.1868 49.198 35.8761C48.4419 33.5774 47.6137 31.0761 46.7255 28.3723C45.8373 25.6686 45.0332 23.1437 44.313 20.7973C43.5929 18.4508 43.0647 16.7476 42.7046 15.6875L46.0534 15.5564C45.5133 17.3311 44.8891 19.3202 44.181 21.5356C43.4609 23.751 42.7047 26.0498 41.9005 28.4439C41.0963 30.8379 40.3162 33.1367 39.56 35.3521C38.8039 37.5675 38.1077 39.5567 37.4836 41.3314L17.4035 93.8098H0V93.7979ZM16.5993 72.5374L22.6246 57.5298H65.3293L71.7506 72.5374H16.5993Z" fill="#262626"/>
<path d="M119.664 93.7974V0.798619H135.328L189.687 73.466L186.746 74.0019C186.386 71.5245 186.074 68.9757 185.81 66.3673C185.546 63.7588 185.294 61.0311 185.078 58.1964C184.85 55.3616 184.682 52.3959 184.538 49.2991C184.406 46.2023 184.285 42.9507 184.201 39.5323C184.117 36.1259 184.069 32.5168 184.069 28.7054V0.810542H201.341V93.8093H185.414L130.791 22.2022L134.271 21.2731C134.715 26.2399 135.099 30.4562 135.412 33.9579C135.724 37.4597 135.964 40.4732 136.144 42.9863C136.324 45.5114 136.48 47.6197 136.612 49.2991C136.744 50.9785 136.84 52.5151 136.876 53.8848C136.924 55.2546 136.948 56.5645 136.948 57.8032V93.8093H119.676L119.664 93.7974Z" fill="#262626"/>
<path d="M390.356 94.5837C382.95 94.5837 376.337 93.0115 370.54 89.8671C364.742 86.7226 360.169 82.3869 356.821 76.8484C353.472 71.3099 351.804 65.0451 351.804 58.0535V0.655504H369.339V56.8505C369.339 61.0193 370.3 64.7114 372.22 67.9392C374.14 71.167 376.709 73.7636 379.913 75.705C383.13 77.6584 386.611 78.6231 390.356 78.6231C394.46 78.6231 398.169 77.6465 401.47 75.705C404.771 73.7636 407.375 71.167 409.296 67.9392C411.216 64.7114 412.176 61.0074 412.176 56.8505V0.655504H429.04V58.0535C429.04 65.057 427.371 71.3218 424.022 76.8484C420.674 82.3869 416.101 86.7226 410.304 89.8671C404.507 93.0115 397.857 94.5837 390.356 94.5837Z" fill="#262626"/>
<path d="M254.044 0.655504V17.3901H296.844V56.8505C296.844 61.0193 295.884 64.7114 293.964 67.9511C292.043 71.1789 289.439 73.7755 286.138 75.717C282.826 77.6703 279.129 78.6469 275.024 78.6469C271.279 78.6469 267.787 77.6703 264.582 75.717C261.365 73.7755 258.797 71.1789 256.876 67.9511C255.148 65.0211 254.2 61.734 254.044 58.0535H236.46C236.46 65.0451 238.141 71.3099 241.489 76.8484C244.838 82.3869 249.411 86.7226 255.208 89.8671C261.005 93.0115 267.606 94.5837 275.024 94.5837C282.441 94.5837 289.163 93.0115 294.972 89.8671C300.769 86.7226 305.342 82.3869 308.691 76.8484C312.04 71.3099 313.708 65.0451 313.708 58.0535V0.655504H254.044Z" fill="#262626"/>
</svg>
