<svg width="216" height="45" viewBox="0 0 216 45" fill="none" xmlns="http://www.w3.org/2000/svg">
<path d="M21.2482 0C9.53238 0 0 9.53238 0 21.2482C0 31.4024 7.15812 39.9067 16.687 42.0018C16.7011 41.4471 16.8071 40.9207 16.9979 40.4331C14.7967 39.0234 13.3305 36.5573 13.3305 33.7555C13.3305 29.3886 16.8813 25.8342 21.2482 25.8342C25.6152 25.8342 29.1695 29.3921 29.1695 33.7555C29.1695 36.5573 27.7068 39.0269 25.5021 40.4331C25.6929 40.9207 25.7989 41.4507 25.813 42.0018C35.3419 39.9067 42.5 31.4024 42.5 21.2482C42.5 9.53238 32.9676 0 21.2482 0ZM27.3358 40.0268C28.9752 38.4334 29.9998 36.2146 29.9998 33.752C29.9998 28.9257 26.0745 25.004 21.2518 25.004C16.429 25.004 12.5073 28.9293 12.5073 33.752C12.5073 36.2146 13.5319 38.4334 15.1712 40.0268C11.5816 37.9246 9.16493 34.0346 9.16493 29.5829C9.16493 22.9159 14.5883 17.4925 21.2518 17.4925C27.9152 17.4925 33.3421 22.9159 33.3421 29.5829C33.3421 34.0311 30.9255 37.9211 27.3358 40.0268ZM34.1654 29.5829C34.1654 22.4601 28.3746 16.6658 21.2482 16.6658C14.1219 16.6658 8.33465 22.4601 8.33465 29.5829C8.33465 33.3916 9.99169 36.8187 12.6239 39.1824C8.04847 36.3064 4.99584 31.2117 4.99584 25.4138C4.99584 16.4502 12.2882 9.1614 21.2482 9.1614C30.2082 9.1614 37.5077 16.4502 37.5077 25.4138C37.5077 31.2081 34.4551 36.3064 29.8797 39.1824C32.5118 36.8187 34.1689 33.3916 34.1689 29.5829H34.1654ZM32.3741 38.3662C36.0202 35.2324 38.3344 30.5934 38.3344 25.4173C38.3344 15.998 30.6711 8.33818 21.2518 8.33818C11.8324 8.33818 4.17262 16.0015 4.17262 25.4173C4.17262 30.5934 6.48682 35.2324 10.1295 38.3662C4.53654 34.7201 0.830282 28.4099 0.830282 21.2482C0.830282 9.98816 9.99168 0.826751 21.2518 0.826751C32.5118 0.826751 41.6768 9.98816 41.6768 21.2482C41.6768 28.4099 37.967 34.7165 32.3741 38.3662Z" fill="#F5F5DD"/>
<path d="M21.2518 44.1709C22.403 44.1709 23.3363 43.2376 23.3363 42.0864C23.3363 40.9351 22.403 40.0018 21.2518 40.0018C20.1005 40.0018 19.1672 40.9351 19.1672 42.0864C19.1672 43.2376 20.1005 44.1709 21.2518 44.1709Z" fill="#F5F5DD"/>
<path d="M65.9589 33.5854V13.5154H68.1789V33.5854H65.9589ZM58.6989 14.9554V12.9454H75.4389V14.9554H58.6989ZM78.6967 33.8854C78.1967 33.8854 77.7867 33.7154 77.4667 33.3754C77.1467 33.0354 76.9867 32.6254 76.9867 32.1454C76.9867 31.6654 77.1467 31.2654 77.4667 30.9454C77.7867 30.6054 78.1967 30.4354 78.6967 30.4354C79.1767 30.4354 79.5767 30.6054 79.8967 30.9454C80.2167 31.2654 80.3767 31.6654 80.3767 32.1454C80.3767 32.6254 80.2167 33.0354 79.8967 33.3754C79.5767 33.7154 79.1767 33.8854 78.6967 33.8854ZM85.6586 33.5854V12.9454H87.8486V33.5854H85.6586ZM87.0986 33.5854V31.5754H99.2486V33.5854H87.0986ZM87.0986 23.9854V22.0354H98.2886V23.9854H87.0986ZM87.0986 14.9554V12.9454H99.0686V14.9554H87.0986ZM105.035 33.8854C104.535 33.8854 104.125 33.7154 103.805 33.3754C103.485 33.0354 103.325 32.6254 103.325 32.1454C103.325 31.6654 103.485 31.2654 103.805 30.9454C104.125 30.6054 104.535 30.4354 105.035 30.4354C105.515 30.4354 105.915 30.6054 106.235 30.9454C106.555 31.2654 106.715 31.6654 106.715 32.1454C106.715 32.6254 106.555 33.0354 106.235 33.3754C105.915 33.7154 105.515 33.8854 105.035 33.8854ZM111.996 33.5854V12.9454H113.556L122.466 27.5554H121.356L130.266 12.9454H131.826V33.5854H129.606V16.7854L130.116 16.9054L122.676 29.1154H121.116L113.676 16.9054L114.186 16.7854V33.5854H111.996ZM138.785 33.8854C138.285 33.8854 137.875 33.7154 137.555 33.3754C137.235 33.0354 137.075 32.6254 137.075 32.1454C137.075 31.6654 137.235 31.2654 137.555 30.9454C137.875 30.6054 138.285 30.4354 138.785 30.4354C139.265 30.4354 139.665 30.6054 139.985 30.9454C140.305 31.2654 140.465 31.6654 140.465 32.1454C140.465 32.6254 140.305 33.0354 139.985 33.3754C139.665 33.7154 139.265 33.8854 138.785 33.8854ZM147.156 25.3054V23.3554H153.246C154.086 23.3554 154.836 23.1854 155.496 22.8454C156.176 22.5054 156.706 22.0254 157.086 21.4054C157.486 20.7654 157.686 20.0054 157.686 19.1254C157.686 18.2454 157.486 17.4954 157.086 16.8754C156.706 16.2354 156.176 15.7454 155.496 15.4054C154.836 15.0454 154.086 14.8654 153.246 14.8654H147.156V12.9454H153.396C154.636 12.9454 155.746 13.2054 156.726 13.7254C157.706 14.2254 158.476 14.9354 159.036 15.8554C159.616 16.7754 159.906 17.8654 159.906 19.1254C159.906 20.3654 159.616 21.4554 159.036 22.3954C158.476 23.3154 157.706 24.0354 156.726 24.5554C155.746 25.0554 154.636 25.3054 153.396 25.3054H147.156ZM145.746 33.5854V12.9454H147.936V33.5854H145.746ZM163.13 33.8854C162.63 33.8854 162.22 33.7154 161.9 33.3754C161.58 33.0354 161.42 32.6254 161.42 32.1454C161.42 31.6654 161.58 31.2654 161.9 30.9454C162.22 30.6054 162.63 30.4354 163.13 30.4354C163.61 30.4354 164.01 30.6054 164.33 30.9454C164.65 31.2654 164.81 31.6654 164.81 32.1454C164.81 32.6254 164.65 33.0354 164.33 33.3754C164.01 33.7154 163.61 33.8854 163.13 33.8854ZM170.092 33.5854V12.9454H172.282V33.5854H170.092ZM171.532 33.5854V31.5754H182.902V33.5854H171.532ZM188.413 33.8854C187.913 33.8854 187.503 33.7154 187.183 33.3754C186.863 33.0354 186.703 32.6254 186.703 32.1454C186.703 31.6654 186.863 31.2654 187.183 30.9454C187.503 30.6054 187.913 30.4354 188.413 30.4354C188.893 30.4354 189.293 30.6054 189.613 30.9454C189.933 31.2654 190.093 31.6654 190.093 32.1454C190.093 32.6254 189.933 33.0354 189.613 33.3754C189.293 33.7154 188.893 33.8854 188.413 33.8854ZM203.533 33.8854C202.073 33.8854 200.713 33.6154 199.453 33.0754C198.213 32.5154 197.123 31.7554 196.183 30.7954C195.243 29.8154 194.503 28.6854 193.963 27.4054C193.443 26.1054 193.183 24.7154 193.183 23.2354C193.183 21.7354 193.443 20.3454 193.963 19.0654C194.483 17.7854 195.213 16.6654 196.153 15.7054C197.093 14.7454 198.183 13.9954 199.423 13.4554C200.663 12.9154 202.013 12.6454 203.473 12.6454C204.933 12.6454 206.283 12.9154 207.523 13.4554C208.783 13.9954 209.883 14.7454 210.823 15.7054C211.763 16.6654 212.493 17.7954 213.013 19.0954C213.533 20.3754 213.793 21.7654 213.793 23.2654C213.793 24.7454 213.533 26.1354 213.013 27.4354C212.493 28.7154 211.763 29.8354 210.823 30.7954C209.903 31.7554 208.823 32.5154 207.583 33.0754C206.343 33.6154 204.993 33.8854 203.533 33.8854ZM203.473 31.7554C205.033 31.7554 206.413 31.3854 207.613 30.6454C208.833 29.9054 209.783 28.8954 210.463 27.6154C211.163 26.3354 211.513 24.8754 211.513 23.2354C211.513 22.0154 211.313 20.8954 210.913 19.8754C210.513 18.8354 209.953 17.9354 209.233 17.1754C208.513 16.3954 207.663 15.7954 206.683 15.3754C205.723 14.9554 204.653 14.7454 203.473 14.7454C201.933 14.7454 200.553 15.1154 199.333 15.8554C198.133 16.5754 197.183 17.5754 196.483 18.8554C195.803 20.1354 195.463 21.5954 195.463 23.2354C195.463 24.4554 195.663 25.5854 196.063 26.6254C196.463 27.6654 197.023 28.5754 197.743 29.3554C198.463 30.1154 199.313 30.7054 200.293 31.1254C201.273 31.5454 202.333 31.7554 203.473 31.7554Z" fill="#F5F5DD"/>
</svg>
