<svg xmlns="http://www.w3.org/2000/svg" width="45" height="35" viewBox="0 0 45 35" fill="none"><path d="M9.80548 8.91528H2.9583L2.35926 10.488H10.4676L9.80548 8.91528ZM7.38523 0.000228843H5.54547L0.00021221 14.4809H1.65637L5.17269 5.19311C5.29695 4.84815 5.42121 4.5032 5.54547 4.15825C5.66787 3.81329 5.79213 3.46463 5.91639 3.11411C6.04065 2.76174 6.16119 2.40935 6.27988 2.05883C6.32625 1.91788 6.37261 1.77693 6.41898 1.63783C6.45422 1.74354 6.48946 1.85297 6.52655 1.9661C6.64339 2.32404 6.76765 2.6931 6.89933 3.07143C7.031 3.45163 7.15526 3.81699 7.2721 4.16937C7.38894 4.51988 7.4965 4.82774 7.59294 5.08924L11.1297 14.4809H12.8878L7.38523 0.000228843Z" fill="#F5F5DD"></path><path d="M29.696 5.89947e-05V5.3172C29.696 5.78456 29.6978 6.30941 29.7053 6.88804C29.7127 7.46853 29.722 8.06015 29.7368 8.6666C29.7498 9.27491 29.7683 9.85726 29.7887 10.4155C29.8091 10.9737 29.8295 11.4745 29.8499 11.9159C29.8518 11.9567 29.8536 11.9956 29.8555 12.0346L20.7587 5.89947e-05H19.2898V14.4808H20.9033V7.90251C20.9033 7.77825 20.8996 7.57054 20.8941 7.28122C20.8866 6.9919 20.8755 6.63952 20.8625 6.22594C20.8477 5.81236 20.831 5.35799 20.8106 4.86096C20.7902 4.36392 20.7624 3.84835 20.7272 3.31051C20.7105 3.04716 20.6938 2.7838 20.6752 2.51674L29.798 14.4808H31.3095V5.89947e-05H29.696Z" fill="#F5F5DD"></path><path d="M29.4363 20.375V29.125C29.4363 29.9391 29.2564 30.6698 28.8984 31.3171C28.5387 31.9662 28.0472 32.4762 27.4185 32.849C26.7916 33.2218 26.0776 33.4072 25.2783 33.4072C24.4789 33.4072 23.8335 33.2218 23.2197 32.849C22.6058 32.4762 22.1199 31.9662 21.7619 31.3171C21.4022 30.6698 21.2241 29.9391 21.2241 29.125V20.375H19.6106V29.3123C19.6106 30.4009 19.8554 31.3764 20.345 32.2388C20.8346 33.1012 21.506 33.7763 22.361 34.2659C23.2159 34.7555 24.1878 35.0003 25.2783 35.0003C26.3688 35.0003 27.3647 34.7555 28.2252 34.2659C29.0876 33.7763 29.7645 33.1012 30.2542 32.2388C30.7419 31.3764 30.9886 30.4009 30.9886 29.3123V20.375H29.4363Z" fill="#F5F5DD"></path><path d="M9.82567 20.3749V29.1249C9.82567 29.9391 9.64578 30.6698 9.28784 31.317C8.92805 31.9662 8.43657 32.4762 7.80786 32.8489C7.18101 33.2217 6.46699 33.4072 5.66766 33.4072C4.86832 33.4072 4.22293 33.2217 3.60906 32.8489C2.99518 32.4762 2.50927 31.9662 2.15133 31.317C1.81936 30.7199 1.64132 30.0522 1.61721 29.3122H0C0 30.4009 0.244811 31.3764 0.734426 32.2388C1.22404 33.1012 1.8954 33.7763 2.75037 34.2659C3.60535 34.7555 4.57715 35.0003 5.66766 35.0003C6.75816 35.0003 7.75408 34.7555 8.61462 34.2659C9.47701 33.7763 10.1521 33.1012 10.6417 32.2388C11.1313 31.3764 11.3761 30.4009 11.3761 29.3122V20.3749H9.82567Z" fill="#F5F5DD"></path><path d="M11.3761 20.3749L2.62612 20.375V22.0293H11.3761L11.3761 20.3749Z" fill="#F5F5DD"></path><path d="M44.7939 34.9999H37.1493V34.1691L41.9212 31.2314L41.9101 31.6246L37.1493 28.6535V27.8783H44.7939V28.7295H41.2999C40.6452 28.7295 40.0554 28.7184 39.5306 28.6961C39.0057 28.6739 38.4865 28.6349 37.969 28.5756L38.275 28.4235L42.5777 31.1646V31.7544L38.3288 34.4194L37.969 34.2989C38.4568 34.2414 38.9575 34.2006 39.4713 34.1783C39.985 34.1561 40.5951 34.145 41.2999 34.145H44.7939V34.9999Z" fill="#F5F5DD"></path><path d="M44.7939 24.4099L37.1493 21.4833V20.5115L44.7939 17.6072V18.5363L39.8348 20.4039C39.6957 20.4559 39.5343 20.5115 39.3488 20.5727C39.1634 20.6339 38.9705 20.7007 38.7702 20.7693C38.5699 20.8379 38.3752 20.9047 38.186 20.9659C37.9968 21.0271 37.8299 21.0846 37.6834 21.1346V20.9158C37.8652 20.9733 38.0488 21.0345 38.2342 21.0957C38.4197 21.1569 38.6052 21.2218 38.7906 21.2867C38.9761 21.3516 39.1597 21.4184 39.3414 21.4833C39.5232 21.5482 39.7049 21.615 39.8867 21.6799L44.7902 23.5364V24.4099H44.7939ZM42.6871 23.1654L41.8563 22.8483V19.2337L42.6871 18.885V23.1654Z" fill="#F5F5DD"></path><path d="M44.9033 10.8401C44.9033 11.3853 44.8068 11.8879 44.6139 12.3478C44.421 12.8059 44.1484 13.2028 43.7942 13.5385C43.4418 13.8742 43.0245 14.1338 42.5442 14.3193C42.0638 14.5047 41.539 14.5975 40.9715 14.5975C40.404 14.5975 39.8958 14.5047 39.4266 14.3193C38.9574 14.1338 38.5457 13.8705 38.1933 13.5274C37.8409 13.1861 37.5683 12.7892 37.3791 12.3367C37.19 11.8861 37.0954 11.3909 37.0954 10.8512C37.0954 10.4951 37.151 10.1409 37.2641 9.7922C37.3773 9.44353 37.5312 9.12084 37.7278 8.82596C37.9244 8.53108 38.1506 8.29 38.4047 8.09897L39.0167 8.68872C38.7979 8.87047 38.6087 9.08004 38.4492 9.31743C38.2897 9.55482 38.1655 9.80334 38.0783 10.0648C37.9911 10.3263 37.9466 10.5897 37.9466 10.8512C37.9466 11.2592 38.0208 11.6394 38.171 11.9918C38.3213 12.3441 38.529 12.6483 38.7998 12.9042C39.0687 13.1583 39.3895 13.3568 39.7604 13.4996C40.1313 13.6424 40.5357 13.7128 40.9733 13.7128C41.411 13.7128 41.8394 13.6424 42.2178 13.4996C42.5961 13.3568 42.9225 13.1546 43.1952 12.8875C43.4678 12.6223 43.6792 12.3089 43.8294 11.9491C43.9778 11.5893 44.0538 11.1869 44.0538 10.7418C44.0538 10.4803 44.0149 10.2169 43.9388 9.9554C43.8628 9.69391 43.7552 9.45283 43.6161 9.23398C43.4771 9.01514 43.3213 8.82968 43.1469 8.67761L43.8573 8.2399C44.0613 8.40681 44.2411 8.63122 44.3988 8.91126C44.5546 9.19131 44.6788 9.49919 44.7697 9.83487C44.8606 10.1706 44.9069 10.5044 44.9069 10.8401H44.9033Z" fill="#F5F5DD"></path><path d="M44.7939 4.63093H37.1493V0H37.9802V3.77782H43.9649V0.0203979H44.7958V4.62907L44.7939 4.63093ZM41.2776 4.23776H40.4468V0.612004H41.2776V4.23776Z" fill="#F5F5DD"></path></svg>